<svg width="182" height="52" viewBox="0 0 182 52" fill="none" xmlns="http://www.w3.org/2000/svg"><path d="M60.7918 33.0909V12.8676H57.4756V33.0909H60.7918Z" fill="white"></path><path d="M62.8213 26.3498C62.8213 30.4815 65.5938 33.4171 69.807 33.4171C74.0202 33.4171 76.7927 30.4815 76.7927 26.3498C76.7927 22.2182 74.0202 19.2826 69.807 19.2826C65.5938 19.2826 62.8213 22.2182 62.8213 26.3498ZM66.1647 26.3498C66.1647 23.9307 67.6053 22.2454 69.807 22.2454C72.0087 22.2454 73.4494 23.9307 73.4494 26.3498C73.4494 28.7418 72.0087 30.4543 69.807 30.4543C67.6053 30.4543 66.1647 28.7418 66.1647 26.3498Z" fill="white"></path><path d="M77.9082 26.078C77.9082 29.9922 80.4361 32.8191 84.2144 32.8191C86.1715 32.8191 87.8568 32.0308 88.6994 30.7261V33.0094C88.6994 35.2111 87.3131 36.6789 85.0027 36.6789C82.9368 36.6789 81.5234 35.6732 81.3331 33.9064H77.9897C78.4247 37.4128 81.1157 39.6961 84.8124 39.6961C89.1615 39.6961 91.934 36.842 91.934 32.4114V19.6631H88.9984L88.8081 21.4843C87.9927 20.0708 86.3074 19.2282 84.3231 19.2282C80.4905 19.2282 77.9082 22.1366 77.9082 26.078ZM81.2787 25.9965C81.2787 23.7675 82.6922 22.1366 84.7852 22.1366C87.0685 22.1366 88.5907 23.7947 88.5907 25.9965C88.5907 28.2254 87.0685 29.9378 84.7852 29.9378C82.7194 29.9378 81.2787 28.2525 81.2787 25.9965Z" fill="white"></path><path d="M93.5752 26.3498C93.5752 30.4815 96.3477 33.4171 100.561 33.4171C104.774 33.4171 107.547 30.4815 107.547 26.3498C107.547 22.2182 104.774 19.2826 100.561 19.2826C96.3477 19.2826 93.5752 22.2182 93.5752 26.3498ZM96.9186 26.3498C96.9186 23.9307 98.3592 22.2454 100.561 22.2454C102.763 22.2454 104.203 23.9307 104.203 26.3498C104.203 28.7418 102.763 30.4543 100.561 30.4543C98.3592 30.4543 96.9186 28.7418 96.9186 26.3498Z" fill="white"></path><path d="M111.135 16.9177C112.222 16.9177 113.119 16.0479 113.119 14.9334C113.119 13.8462 112.222 12.9763 111.135 12.9763C110.02 12.9763 109.178 13.8462 109.178 14.9334C109.178 16.0479 110.02 16.9177 111.135 16.9177ZM109.477 33.0909H112.793V19.6631H109.477V33.0909Z" fill="white"></path><path d="M115.699 39.3156C116.945 39.5207 118.934 39.3156 118.934 39.3156V31.2426C119.776 32.6288 121.597 33.4443 123.609 33.4443C127.577 33.4443 129.942 30.3999 129.888 26.2139C129.806 22.0007 127.387 19.2554 123.582 19.2554C121.543 19.2554 119.695 20.1524 118.879 21.7017L118.689 19.6631H115.699C115.699 19.6631 108.126 38.069 115.699 39.3156ZM119.069 26.377C119.069 23.9578 120.537 22.2726 122.848 22.2726C125.158 22.2726 126.544 23.985 126.544 26.377C126.544 28.769 125.158 30.4543 122.848 30.4543C120.537 30.4543 119.069 28.7962 119.069 26.377Z" fill="white"></path><path d="M130.729 29.068C130.838 31.7318 132.904 33.4443 136.111 33.4443C139.265 33.4443 141.412 31.759 141.412 29.1496C141.412 27.2196 140.216 25.9149 138.014 25.3713L135.649 24.8005C134.644 24.5286 133.964 24.1753 133.964 23.3055C133.964 22.3813 134.698 21.7289 135.894 21.7289C137.144 21.7289 137.96 22.4356 137.96 23.6045H140.977C140.868 20.9406 138.884 19.2554 135.976 19.2554C133.094 19.2554 130.947 20.9406 130.947 23.4957C130.947 25.2354 131.953 26.676 134.535 27.3556L136.873 27.9536C137.742 28.1982 138.286 28.6059 138.286 29.367C138.286 30.4271 137.28 30.9164 136.057 30.9164C134.589 30.9164 133.747 30.2368 133.747 29.068H130.729Z" fill="white"></path><path d="M148.291 33.4443C150.112 33.4443 151.852 32.6016 152.64 31.3513L152.858 33.0909H155.956V19.6631H152.64V26.7032C152.64 29.1224 151.716 30.4815 149.541 30.4815C147.856 30.4815 146.687 29.666 146.687 26.8935V19.6631H143.371V28.0623C143.371 31.2697 145.111 33.4443 148.291 33.4443Z" fill="white"></path><path d="M162.199 33.0909V25.3713C162.199 23.1967 163.477 22.1638 165.053 22.1638C166.63 22.1638 167.663 23.1696 167.663 25.0723V33.0909H170.897V25.3985C170.897 23.1967 172.148 22.1638 173.724 22.1638C175.328 22.1638 176.361 23.1696 176.361 25.0723V33.0909H179.568V24.3112C179.568 21.2125 177.856 19.2554 174.594 19.2554C172.555 19.2554 170.952 20.2339 170.299 21.8105C169.565 20.2339 168.097 19.2554 165.869 19.2554C164.292 19.2554 162.879 19.9893 162.09 21.1853L161.927 19.6631H158.883V33.0909H162.199Z" fill="white"></path><path d="M154.249 45.0911C154.743 45.0911 155.172 44.6751 155.172 44.1811C155.172 43.6741 154.743 43.2581 154.249 43.2581C153.742 43.2581 153.312 43.6741 153.312 44.1811C153.312 44.6751 153.742 45.0911 154.249 45.0911Z" fill="white"></path><path d="M156.125 41.7371C156.125 43.7261 157.347 45.0651 159.128 45.0651C160.662 45.0651 161.832 44.1421 162.079 42.7641H160.909C160.688 43.5311 160.012 43.9861 159.206 43.9861C158.062 43.9861 157.334 43.1021 157.334 41.7241C157.334 40.3201 158.101 39.4621 159.232 39.4621C160.012 39.4621 160.688 39.8781 160.896 40.6971H162.066C161.858 39.3061 160.766 38.3701 159.245 38.3701C157.399 38.3701 156.125 39.7351 156.125 41.7371Z" fill="white"></path><path d="M162.54 41.7241C162.54 43.6351 163.84 45.0651 165.79 45.0651C167.74 45.0651 169.04 43.6351 169.04 41.7241C169.04 39.8131 167.74 38.3831 165.79 38.3831C163.84 38.3831 162.54 39.8131 162.54 41.7241ZM163.775 41.7241C163.775 40.4241 164.568 39.4751 165.79 39.4751C167.012 39.4751 167.805 40.4241 167.805 41.7241C167.805 43.0241 167.012 43.9731 165.79 43.9731C164.568 43.9731 163.775 43.0241 163.775 41.7241Z" fill="white"></path><path d="M171.306 44.9221V41.1001C171.306 40.0991 171.93 39.4491 172.84 39.4491C173.711 39.4491 174.257 40.0081 174.257 41.0091V44.9221H175.453V41.1131C175.453 40.0991 176.064 39.4491 176.987 39.4491C177.845 39.4491 178.391 40.0081 178.391 41.0091V44.9221H179.574V40.7491C179.574 39.2801 178.716 38.3831 177.26 38.3831C176.272 38.3831 175.505 38.8641 175.193 39.6441C174.868 38.8641 174.153 38.3831 173.113 38.3831C172.32 38.3831 171.618 38.7471 171.267 39.3711L171.176 38.5651H170.084V44.9221H171.306Z" fill="white"></path><path fill-rule="evenodd" clip-rule="evenodd" d="M2.36328 26.5145L2.36556 26.2776L2.37027 26.0407L2.3774 25.8037L2.38696 25.5668L2.39897 25.3298L2.4134 25.0928L2.43028 24.856L2.44958 24.6192L2.47132 24.3825L2.4955 24.1457L2.52212 23.9094L2.55116 23.673L2.58264 23.4369L2.61656 23.201L2.6529 22.9653L2.69167 22.73L2.73288 22.4949L2.7765 22.2601L2.82256 22.0257L2.87104 21.7916L2.92194 21.5578L2.97524 21.3245L3.03097 21.0917L3.0891 20.8592L3.14964 20.6273L3.21257 20.3958L3.27791 20.1649L3.34564 19.9346L3.41576 19.7048L3.48825 19.4757L3.56313 19.2471L3.64039 19.0191L3.72001 18.7919L3.80198 18.5653L3.88631 18.3395L3.97299 18.1143L4.06202 17.89L4.15337 17.6664L4.24705 17.4438L4.34305 17.2218L4.44137 17.0007L4.54199 16.7805L4.6449 16.5613L4.75011 16.3429L4.85759 16.1254L4.96735 15.9091L5.07936 15.6936L5.19363 15.4791L5.31013 15.2658L5.42887 15.0534L5.54984 14.8421L5.67301 14.632L5.79839 14.4229L5.92596 14.215L6.05571 14.0083L6.18762 13.8028L6.3217 13.5986L6.45793 13.3954L6.59628 13.1937L6.73677 12.9932L6.87935 12.7939L7.02403 12.5961L7.1708 12.3994L7.31964 12.2043L7.47054 12.0105L7.62348 11.818L7.77846 11.627L7.93545 11.4375L8.09444 11.2494L8.25543 11.0628L8.41839 10.8777L8.5833 10.6942L8.75016 10.5122L8.91896 10.3317L9.08966 10.1529L9.26226 9.97562L9.43675 9.79999L9.6131 9.626L9.7913 9.45368L9.97134 9.28304L10.1532 9.11411L10.3369 8.94688L10.5223 8.7814L10.7095 8.61768L10.8985 8.45571L11.0892 8.29555L11.2816 8.1372L11.4757 7.98066L11.6714 7.82598L11.8689 7.67314L12.0679 7.5222L12.2687 7.37314L12.471 7.226L12.6749 7.08079L12.8803 6.93752L13.0873 6.79621L13.2958 6.65686L13.5058 6.51952L13.7174 6.38418L13.9304 6.25087L14.1448 6.1196L14.3607 5.99036L14.578 5.86321L14.7966 5.73814L15.0167 5.61516L15.238 5.4943L15.4607 5.37555L15.6846 5.25895L15.9099 5.14449L16.1364 5.0322L16.3642 4.9221L16.5932 4.81417L16.8233 4.70846L17.0547 4.60497L17.2872 4.5037L17.5208 4.40467L17.7555 4.3079L17.9913 4.21339L18.2281 4.12115L18.466 4.03122L18.7049 3.94356L18.9448 3.85823L19.1856 3.77521L19.4274 3.69452L19.6701 3.61617L19.9136 3.54017L20.1582 3.46653L20.4035 3.39527L20.6496 3.32638L20.8966 3.25987L21.1443 3.19575L21.3927 3.13405L21.6418 3.07477L21.8918 3.01789L22.1423 2.96346L22.3934 2.91144L22.6453 2.86188L22.8977 2.81477L23.1508 2.77011L23.4044 2.72792L23.6585 2.6882L23.913 2.65095L24.1681 2.61619L24.4236 2.58391L24.6796 2.55413L24.9359 2.52683L25.1926 2.50206L25.4496 2.47978L25.707 2.46001L25.9647 2.44277L27.3502 2.36365L27.4293 9.03935L27.4746 9.03883L27.6659 9.03856L27.8572 9.04016L28.0486 9.04365L28.2401 9.04903L28.4316 9.05628L28.6232 9.06541L28.8147 9.07643L29.0063 9.08935L29.1978 9.10414L29.3893 9.12082L29.5807 9.1394L29.772 9.15987L29.9631 9.18222L30.1542 9.20646L30.3451 9.23259L30.5358 9.2606L30.7263 9.29051L30.9167 9.3223L31.1068 9.35597L31.2967 9.39153L31.4862 9.42897L31.6755 9.4683L31.8645 9.5095L32.0532 9.55258L32.2414 9.59752L32.4294 9.64435L32.617 9.69305L32.8041 9.74361L32.9908 9.79603L33.1772 9.85031L33.363 9.90645L33.5483 9.96444L33.7331 10.0243L33.9175 10.086L34.1012 10.1495L34.2844 10.2149L34.4671 10.2821L34.6491 10.3511L34.8306 10.4219L35.0114 10.4946L35.1915 10.5691L35.3709 10.6453L35.5497 10.7234L35.7278 10.8033L35.9051 10.885L36.0816 10.9684L36.2575 11.0536L36.4325 11.1406L36.6067 11.2294L36.7801 11.3199L36.9526 11.4121L37.1243 11.5061L37.2951 11.6019L37.4651 11.6993L37.6341 11.7985L37.8021 11.8994L37.9692 12.002L38.1354 12.1062L38.3005 12.2122L38.4646 12.3198L38.6277 12.4291L38.7899 12.54L38.9508 12.6526L39.1109 12.7668L39.2697 12.8827L39.4274 13.0001L39.5841 13.1193L39.7395 13.2399L39.8938 13.3622L40.0469 13.486L40.1988 13.6114L40.3495 13.7384L40.499 13.8669L40.6473 13.9969L40.7944 14.1284L40.94 14.2615L41.0844 14.3961L41.2275 14.5321L41.3693 14.6696L41.5097 14.8085L41.6488 14.9489L41.7865 15.0909L41.9229 15.2341L42.0577 15.3788L42.1913 15.5248L42.3233 15.6723L42.4539 15.8211L42.583 15.9713L42.7107 16.1228L42.8369 16.2757L42.9616 16.4299L43.0847 16.5853L43.2063 16.742L43.3264 16.9L43.4449 17.0593L43.5618 17.2198L43.6772 17.3816L43.7909 17.5446L43.903 17.7086L44.0135 17.8739L44.1224 18.0405L44.2296 18.2082L44.335 18.3769L44.4389 18.5468L44.541 18.7178L44.6414 18.8898L44.7401 19.063L44.8371 19.2372L44.9324 19.4124L45.0259 19.5886L45.1176 19.7659L45.2075 19.9441L45.2957 20.1233L45.3821 20.3035L45.4667 20.4846L45.5494 20.6666L45.6304 20.8495L45.7094 21.0333L45.7866 21.218L45.862 21.4034L45.9355 21.5898L46.0071 21.7769L46.0769 21.9649L46.1447 22.1535L46.2106 22.3431L46.2747 22.5333L46.3369 22.7242L46.397 22.9158L46.4553 23.1081L46.5115 23.3011L46.5659 23.4947L46.6182 23.689L46.6687 23.8838L46.717 24.0792L46.7636 24.2753L46.808 24.4718L46.8505 24.6689L46.891 24.8664L46.9294 25.0646L46.9658 25.2631L47.0003 25.4622L47.0327 25.6615L47.0631 25.8614L47.0914 26.0617L47.1177 26.2623L47.1419 26.4633L47.1641 26.6645L47.1842 26.8662L47.2023 27.068L47.2184 27.2702L47.2323 27.4727L47.2441 27.6754L47.2539 27.8782L47.2617 28.0813L47.2673 28.2845L47.271 28.4879L47.2724 28.6914L47.2718 28.895L47.2691 29.0987L47.2642 29.3026L47.2574 29.5063L47.2484 29.7102L47.2374 29.9141L47.2242 30.1179L47.2089 30.3218L47.1915 30.5255L47.172 30.7293L47.1505 30.9329L47.1268 31.1363L47.101 31.3397L47.0732 31.5429L47.0432 31.7459L47.0112 31.9487L46.977 32.1513L46.9408 32.3536L46.9025 32.5557L46.8621 32.7575L46.8195 32.959L46.7748 33.1602L46.7282 33.3611L46.6795 33.5615L46.6285 33.7616L46.5756 33.9612L46.5206 34.1605L46.4635 34.3592L46.4044 34.5576L46.3432 34.7555L46.2799 34.9528L46.2147 35.1497L46.1473 35.3458L46.0778 35.5415L46.0064 35.7367L45.9329 35.9311L45.8574 36.1249L45.7799 36.3181L45.7003 36.5106L45.6188 36.7024L45.5352 36.8937L45.4497 37.0839L45.3621 37.2736L45.2725 37.4625L45.181 37.6505L45.0874 37.8378L44.9921 38.0242L44.8946 38.2099L44.7953 38.3944L44.6939 38.5783L44.5907 38.7612L44.4855 38.9432L44.3785 39.1242L44.2695 39.3042L44.1586 39.4834L44.0458 39.6614L43.9311 39.8384L43.8147 40.0144L43.6963 40.1893L43.5761 40.3631L43.454 40.5359L43.3302 40.7075L43.2044 40.878L43.0769 41.0474L42.9476 41.2156L42.8166 41.3824L42.6837 41.5482L42.5491 41.7128L42.4127 41.876L42.2746 42.038L42.1348 42.1987L41.9932 42.3582L41.85 42.5163L41.7051 42.6731L41.5585 42.8285L41.4102 42.9826L41.2603 43.1352L41.1087 43.2865L40.9556 43.4363L40.8009 43.5848L40.6445 43.7318L40.4866 43.8773L40.3271 44.0213L40.166 44.1637L40.0035 44.3047L39.8393 44.4443L39.6738 44.5822L39.5067 44.7185L39.3381 44.8533L39.1681 44.9865L38.9966 45.118L38.8237 45.2479L38.6494 45.3763L38.4737 45.503L38.2966 45.6279L38.1181 45.7513L37.9384 45.8729L37.7573 45.9927L37.5748 46.1109L37.3912 46.2274L37.2062 46.3421L37.02 46.455L36.8324 46.5661L36.6437 46.6756L36.4539 46.7831L36.2627 46.8888L36.0705 46.9928L35.877 47.0948L35.6825 47.195L35.4868 47.2934L35.29 47.3899L35.0922 47.4844L34.8933 47.5772L34.6933 47.6679L34.4924 47.7568L34.2905 47.8437L34.0875 47.9286L33.8837 48.0117L33.6789 48.0928L33.4731 48.1719L33.2664 48.249L33.0589 48.3241L32.8504 48.3972L32.6412 48.4683L32.4312 48.5374L32.2203 48.6044L32.0086 48.6694L31.7962 48.7324L31.5832 48.7933L31.3692 48.8521L31.1547 48.909L30.9394 48.9636L30.7236 49.0162L30.5071 49.0667L30.2899 49.1151L30.0722 49.1614L29.8539 49.2056L29.635 49.2477L29.4157 49.2876L29.1959 49.3253L28.9755 49.361L28.7547 49.3946L28.5333 49.4259L28.3118 49.4551L28.0897 49.4821L27.8672 49.507L27.6444 49.5297L27.4213 49.5502L27.1979 49.5685L26.9742 49.5847L26.7502 49.5987L26.5259 49.6105L26.3015 49.6201L26.0769 49.6274L25.852 49.6326L25.6271 49.6355L25.402 49.6364L25.1769 49.635L24.9516 49.6313L24.7262 49.6255L24.5009 49.6173L24.2755 49.6071L24.0501 49.5947L23.8249 49.5799L23.5995 49.563L23.3744 49.5438L23.1492 49.5224L22.9242 49.4989L22.6994 49.4732L22.4748 49.4452L22.2502 49.4149L22.026 49.3824L21.8019 49.3478L21.5782 49.3109L21.3547 49.2719L21.1315 49.2305L20.9087 49.187L20.6862 49.1414L20.4641 49.0934L20.2423 49.0433L20.0211 48.9911L19.8002 48.9366L19.5798 48.8799L19.3598 48.821L19.1405 48.7601L18.9216 48.6968L18.7032 48.6315L18.4855 48.5639L18.2684 48.4942L18.0519 48.4223L17.836 48.3482L17.6208 48.272L17.4063 48.1937L17.1925 48.1133L16.9794 48.0306L16.7672 47.9459L16.5556 47.859L16.3449 47.7701L16.135 47.6791L15.9259 47.5859L15.7177 47.4907L15.5104 47.3933L15.3041 47.2939L15.0987 47.1924L14.8941 47.0888L14.6906 46.9833L14.4881 46.8757L14.2865 46.7661L14.0861 46.6544L13.8867 46.5407L13.6884 46.425L13.4912 46.3073L13.2951 46.1877L13.1001 46.066L12.9063 45.9425L12.7138 45.8169L12.5223 45.6895L12.3322 45.5599L12.1433 45.4286L11.9556 45.2954L11.7693 45.1602L11.5842 45.0233L11.4005 44.8843L11.2181 44.7435L11.0371 44.601L10.8575 44.4565L10.6793 44.3103L10.5025 44.1622L10.3272 44.0123L10.1533 43.8607L9.98088 43.7072L9.80999 43.552L9.64062 43.3952L9.47278 43.2365L9.30651 43.0762L9.14181 42.9141L8.9787 42.7504L8.8172 42.5851L8.65734 42.4179L8.49912 42.2493L8.34256 42.079L8.1877 41.9071L8.03452 41.7336L7.88306 41.5585L7.73333 41.3819L7.58536 41.2038L7.43916 41.024L7.29473 40.8428L7.1521 40.6601L7.01129 40.476L6.87231 40.2903L6.73517 40.1032L6.5999 39.9147L6.4665 39.7248L6.33499 39.5336L6.2054 39.341L6.07772 39.1469L5.95199 38.9517L5.8282 38.755L5.70637 38.5571L5.58654 38.3579L5.46869 38.1574L5.35286 37.9558L5.23904 37.7528L5.12725 37.5487L5.01752 37.3433L4.90983 37.1369L4.80423 36.9293L4.70071 36.7206L4.59929 36.5109L4.49999 36.2999L4.40279 36.088L4.30774 35.8749L4.21482 35.661L4.12407 35.4459L4.0355 35.23L3.94908 35.013L3.86486 34.7951L3.78286 34.5764L3.70305 34.3566L3.62546 34.1361L3.5501 33.9148L3.47698 33.6925L3.40612 33.4695L3.3375 33.2456L3.27117 33.0211L3.2071 32.7957L3.14531 32.5696L3.08582 32.3429L3.02863 32.1156L2.97375 31.8875L2.92119 31.6588L2.87095 31.4294L2.82304 31.1995L2.77747 30.9691L2.73424 30.7382L2.69336 30.5066L2.65485 30.2747L2.61868 30.0422L2.5849 29.8092L2.55348 29.5758L2.52446 29.3421L2.49781 29.108L2.47355 28.8735L2.45168 28.6388L2.43222 28.4036L2.41515 28.1682L2.4005 27.9325L2.38825 27.6966L2.37842 27.4605L2.371 27.2243L2.366 26.9878L2.36343 26.7512L2.36328 26.5145ZM25.2647 9.17918L25.2108 4.62894L25.1596 4.63388L24.9247 4.65889L24.6903 4.68617L24.4561 4.71576L24.2228 4.74755L23.9897 4.78166L23.7569 4.81805L23.5248 4.85667L23.2929 4.8976L23.0622 4.94065L22.8312 4.98611L22.6018 5.03362L22.3721 5.08353L22.1435 5.13555L21.9152 5.18989L21.6879 5.24631L21.4612 5.305L21.2351 5.36588L21.0098 5.42895L20.7855 5.49414L20.5615 5.56158L20.3387 5.6311L20.1166 5.70284L19.8956 5.77656L19.6749 5.85261L19.4554 5.93069L19.237 6.01084L19.0192 6.09318L18.8026 6.17753L18.5872 6.26391L18.3723 6.35251L18.1585 6.44312L17.9458 6.5358L17.7342 6.63042L17.5238 6.72711L17.3145 6.82574L17.1059 6.92655L16.8988 7.02921L16.6928 7.13386L16.488 7.24048L16.2844 7.34908L16.0822 7.45953L15.8808 7.57203L15.6807 7.68647L15.4824 7.80255L15.2847 7.9209L15.0889 8.04082L14.8943 8.1626L14.7008 8.28639L14.5087 8.41198L14.3181 8.5394L14.1292 8.66833L13.9411 8.79953L13.7548 8.93215L13.57 9.06659L13.3865 9.20288L13.2046 9.34078L13.0243 9.48034L12.8452 9.62187L12.668 9.76474L12.4922 9.90949L12.318 10.0558L12.1453 10.2038L11.9744 10.3533L11.8048 10.5046L11.6371 10.6573L11.4709 10.8117L11.3066 10.9675L11.1437 11.1249L10.9827 11.2837L10.8234 11.4442L10.6655 11.6062L10.5098 11.7694L10.3558 11.934L10.2032 12.1005L10.0526 12.2681L9.90397 12.4369L9.75682 12.6074L9.61181 12.779L9.46841 12.9521L9.32693 13.1265L9.18731 13.3022L9.04951 13.4791L8.91375 13.6572L8.77975 13.8366L8.6476 14.0174L8.51758 14.1991L8.38929 14.3823L8.26305 14.5664L8.13876 14.7517L8.01633 14.9382L7.89598 15.1257L7.77759 15.3142L7.6612 15.5039L7.54688 15.6946L7.43444 15.8864L7.32402 16.0792L7.21578 16.2728L7.10948 16.4675L7.0052 16.6632L6.90305 16.8597L6.8029 17.0572L6.7049 17.2554L6.60895 17.4545L6.51512 17.6545L6.42332 17.8554L6.33371 18.0569L6.24612 18.2593L6.16068 18.4625L6.07742 18.6662L5.99624 18.8708L5.91719 19.0761L5.84031 19.282L5.76556 19.4885L5.69302 19.6956L5.62257 19.9035L5.55431 20.1118L5.48823 20.3208L5.42434 20.5301L5.36258 20.7402L5.30305 20.9506L5.2457 21.1615L5.19052 21.3728L5.13754 21.5847L5.08677 21.7969L5.0382 22.0095L4.99182 22.2224L4.94766 22.4358L4.9057 22.6493L4.86595 22.8632L4.82841 23.0774L4.79309 23.2919L4.75998 23.5065L4.72909 23.7213L4.70042 23.9364L4.67396 24.1516L4.64972 24.367L4.6277 24.5825L4.60791 24.7981L4.59032 25.0137L4.57496 25.2295L4.56182 25.4453L4.55089 25.6609L4.54218 25.8767L4.53568 26.0924L4.5314 26.3081L4.52932 26.5237L4.52946 26.7392L4.5318 26.9546L4.53635 27.1699L4.5431 27.385L4.55204 27.5998L4.5632 27.8146L4.57653 28.029L4.59206 28.2432L4.60978 28.4571L4.62968 28.6708L4.65174 28.8842L4.67599 29.0972L4.70241 29.3099L4.73098 29.5222L4.76172 29.7341L4.79462 29.9456L4.82965 30.1566L4.86685 30.3672L4.90616 30.5773L4.94761 30.7868L4.99118 30.996L5.03687 31.2045L5.08468 31.4125L5.13459 31.6199L5.18659 31.8267L5.24069 32.033L5.29685 32.2384L5.35511 32.4433L5.41543 32.6475L5.47781 32.851L5.54224 33.0538L5.6087 33.2558L5.67719 33.457L5.74773 33.6575L5.82027 33.8572L5.89479 34.056L5.97136 34.2541L6.04987 34.4512L6.13036 34.6475L6.21284 34.8428L6.29726 35.0373L6.38364 35.2308L6.47194 35.4235L6.56218 35.615L6.65431 35.8057L6.74836 35.9952L6.84429 36.1839L6.94211 36.3714L7.04178 36.5579L7.14332 36.7433L7.2467 36.9276L7.3519 37.1108L7.45893 37.2929L7.56777 37.4737L7.67836 37.6535L7.79079 37.832L7.90495 38.0093L8.02088 38.1855L8.13856 38.3604L8.25793 38.534L8.37902 38.7064L8.50185 38.8776L8.62632 39.0474L8.7525 39.2159L8.88028 39.383L9.00977 39.5489L9.14081 39.7132L9.2735 39.8763L9.40783 40.0381L9.54365 40.1984L9.6811 40.3572L9.82007 40.5146L9.96062 40.6706L10.1027 40.8251L10.2462 40.9781L10.3912 41.1296L10.5377 41.2797L10.6857 41.4283L10.8351 41.5752L10.9859 41.7207L11.1381 41.8645L11.2917 42.0069L11.4467 42.1477L11.6031 42.2868L11.7607 42.4242L11.9197 42.5601L12.0801 42.6944L12.2415 42.827L12.4045 42.958L12.5685 43.0872L12.7339 43.2148L12.9004 43.3408L13.0682 43.465L13.2371 43.5875L13.4071 43.7083L13.5783 43.8273L13.7507 43.9446L13.9241 44.0601L14.0987 44.1739L14.2742 44.2859L14.4509 44.3961L14.6287 44.5046L14.8072 44.6112L14.987 44.716L15.1676 44.8189L15.3492 44.9201L15.5317 45.0194L15.7152 45.1169L15.8995 45.2125L16.0847 45.3063L16.2708 45.3981L16.4578 45.4882L16.6454 45.5764L16.8339 45.6626L17.0231 45.7469L17.2133 45.8294L17.404 45.9099L17.5956 45.9886L17.7878 46.0653L17.9807 46.14L18.1742 46.2129L18.3683 46.2838L18.5631 46.3527L18.7585 46.4197L18.9545 46.4848L19.151 46.5479L19.3479 46.609L19.5456 46.6682L19.7436 46.7254L19.9421 46.7806L20.1411 46.8339L20.3405 46.8852L20.5404 46.9345L20.7404 46.9818L20.9411 47.0272L21.142 47.0704L21.3432 47.1118L21.5448 47.1511L21.7466 47.1885L21.9487 47.2238L22.1511 47.2571L22.3536 47.2885L22.5564 47.3178L22.7595 47.3451L22.9625 47.3705L23.1658 47.3938L23.3692 47.415L23.5727 47.4344L23.7763 47.4517L23.9799 47.467L24.1835 47.4803L24.3873 47.4916L24.5909 47.5008L24.7945 47.5082L24.9982 47.5135L25.2018 47.5167L25.4052 47.518L25.6086 47.5173L25.8119 47.5145L26.0149 47.5099L26.2178 47.5032L26.4206 47.4946L26.6232 47.4839L26.8254 47.4713L27.0275 47.4567L27.2293 47.4402L27.4308 47.4216L27.632 47.4011L27.8329 47.3786L28.0333 47.3543L28.2335 47.3279L28.4332 47.2996L28.6326 47.2693L28.8315 47.2372L29.0301 47.203L29.2281 47.167L29.4256 47.129L29.6226 47.0892L29.8192 47.0474L30.0151 47.0038L30.2105 46.9581L30.4053 46.9106L30.5995 46.8614L30.7931 46.8101L30.986 46.757L31.1784 46.702L31.3699 46.6452L31.5609 46.5866L31.7511 46.5262L31.9407 46.4638L32.1294 46.3997L32.3172 46.3338L32.5045 46.266L32.6909 46.1965L32.8764 46.1251L33.0611 46.052L33.2449 45.9772L33.4279 45.9005L33.61 45.8222L33.7911 45.7421L33.9712 45.6603L34.1507 45.5767L34.329 45.4914L34.5063 45.4045L34.6827 45.3158L34.858 45.2255L35.0323 45.1335L35.2057 45.0398L35.3777 44.9446L35.5489 44.8477L35.7188 44.7492L35.8879 44.649L36.0555 44.5474L36.2224 44.4439L36.3877 44.3391L36.552 44.2326L36.7152 44.1246L36.8772 44.0149L37.0377 43.9041L37.1971 43.7915L37.3554 43.6774L37.5123 43.562L37.6681 43.4448L37.8223 43.3265L37.9756 43.2065L38.1272 43.0852L38.2776 42.9625L38.4268 42.8383L38.5746 42.7127L38.7207 42.5859L38.8657 42.4575L39.0092 42.328L39.1514 42.1971L39.2922 42.0648L39.4313 41.9314L39.5692 41.7964L39.7056 41.6603L39.8404 41.523L39.9738 41.3843L40.1056 41.2446L40.2358 41.1038L40.3649 40.9612L40.4921 40.818L40.6179 40.6734L40.742 40.5278L40.8647 40.3808L40.9857 40.233L41.1051 40.084L41.223 39.9338L41.3392 39.7827L41.4539 39.6304L41.5668 39.4772L41.6782 39.3229L41.7882 39.1675L41.8959 39.0115L42.0024 38.8542L42.107 38.6962L42.2101 38.537L42.3116 38.3768L42.4111 38.2161L42.5089 38.0544L42.6053 37.8915L42.6996 37.7283L42.7923 37.5639L42.8835 37.3987L42.9726 37.233L43.0601 37.0661L43.1459 36.8985L43.2297 36.7308L43.312 36.5617L43.3925 36.392L43.4711 36.2218L43.5479 36.0509L43.6229 35.8793L43.6961 35.7072L43.7676 35.5342L43.8372 35.3607L43.9049 35.1871L43.9709 35.0122L44.0349 34.8373L44.0973 34.6616L44.1578 34.4855L44.2164 34.3088L44.273 34.1321L44.3281 33.9541L44.3811 33.7764L44.4322 33.598L44.4816 33.4195L44.5291 33.2402L44.5746 33.0609L44.6185 32.881L44.6603 32.7008L44.7004 32.5205L44.7386 32.3396L44.7747 32.1589L44.8091 31.9774L44.8416 31.7964L44.8722 31.6146L44.9009 31.4327L44.9278 31.2508L44.9528 31.0686L44.9759 30.8866L44.9971 30.7038L45.0164 30.5216L45.0339 30.3389L45.0494 30.1566L45.0631 29.9736L45.0749 29.7914L45.0848 29.6086L45.0929 29.4256L45.099 29.2432L45.1034 29.061L45.1058 28.8782L45.1063 28.6957L45.105 28.5135L45.1018 28.3314L45.0968 28.1493L45.0898 27.9679L45.0811 27.7857L45.0704 27.6044L45.0579 27.4232L45.0436 27.2425L45.0274 27.0614L45.0094 26.8812L44.9896 26.7008L44.9678 26.5211L44.9443 26.3414L44.919 26.1624L44.8917 25.9832L44.8628 25.8049L44.832 25.6271L44.7994 25.4493L44.7649 25.272L44.7287 25.0954L44.6907 24.9188L44.6511 24.7434L44.6094 24.5678L44.5663 24.3933L44.521 24.2187L44.4742 24.0453L44.4256 23.8721L44.3753 23.6994L44.3233 23.5276L44.2695 23.3565L44.2138 23.1855L44.1568 23.0158L44.0977 22.8462L44.0372 22.6777L43.9748 22.5095L43.9108 22.3425L43.845 22.1758L43.7776 22.01L43.7087 21.8452L43.6382 21.6812L43.5656 21.5174L43.492 21.3551L43.4162 21.193L43.3392 21.0324L43.2605 20.8723L43.18 20.7129L43.0982 20.5548L43.0146 20.3974L42.9294 20.2407L42.8432 20.0855L42.7549 19.9307L42.6653 19.7771L42.5739 19.6243L42.4815 19.4731L42.3871 19.3221L42.2916 19.1726L42.1943 19.0239L42.0958 18.8764L41.9959 18.7302L41.8943 18.5846L41.7913 18.4403L41.6871 18.297L41.5813 18.1551L41.4743 18.014L41.3658 17.8743L41.256 17.7356L41.1448 17.5981L41.0323 17.4618L40.9183 17.3266L40.8031 17.1927L40.6867 17.06L40.5691 16.9286L40.4501 16.7984L40.3296 16.6692L40.2084 16.5418L40.0853 16.4151L39.9615 16.2902L39.8364 16.1662L39.7102 16.0438L39.5823 15.9223L39.4539 15.8027L39.3239 15.684L39.1929 15.5668L39.0611 15.4511L38.928 15.3367L38.7934 15.2234L38.6581 15.1117L38.5218 15.0014L38.3844 14.8926L38.2459 14.785L38.1067 14.6793L37.9659 14.5743L37.8247 14.4714L37.6823 14.3697L37.5388 14.2694L37.3947 14.1707L37.2491 14.0732L37.1035 13.9777L36.9563 13.8833L36.8086 13.7905L36.6596 13.6992L36.5102 13.6094L36.3598 13.5212L36.2089 13.4347L36.0566 13.3492L35.9042 13.2658L35.7506 13.1837L35.5964 13.1032L35.4416 13.0244L35.2858 12.9469L35.1294 12.8711L34.9725 12.797L34.8147 12.7243L34.6566 12.6534L34.4976 12.5839L34.333 12.5139L34.1782 12.45L34.0171 12.3852L33.8563 12.3225L33.6941 12.2609L33.532 12.2013L33.3691 12.1432L33.2059 12.0868L33.042 12.0319L32.878 11.9788L32.7132 11.9273L32.5481 11.8774L32.3829 11.8293L32.217 11.7827L32.0504 11.7377L31.8842 11.6945L31.7175 11.653L31.5498 11.613L31.3827 11.5748L31.2148 11.5382L31.0468 11.5033L30.8783 11.47L30.71 11.4385L30.5413 11.4086L30.3726 11.3804L30.2031 11.3539L30.0341 11.329L29.8648 11.3058L29.6952 11.2843L29.5256 11.2645L29.356 11.2464L29.1863 11.2299L29.0165 11.2151L28.8465 11.202L28.6765 11.1905L28.5069 11.1807L28.3372 11.1726L28.1669 11.1662L27.9975 11.1614L27.8278 11.1583L27.6582 11.1569L27.4884 11.1572L27.4543 11.1576L27.5079 15.6747L27.6042 15.6742L27.7282 15.6749L27.8521 15.6768L27.9762 15.68L28.1004 15.6844L28.2247 15.6901L28.3489 15.6969L28.4732 15.705L28.5975 15.7143L28.7218 15.7248L28.8462 15.7366L28.9704 15.7496L29.0947 15.7639L29.2189 15.7794L29.343 15.7961L29.4671 15.8142L29.5911 15.8333L29.7149 15.8537L29.8388 15.8755L29.9624 15.8984L30.0859 15.9226L30.2093 15.9481L30.3325 15.9746L30.4556 16.0025L30.5784 16.0317L30.701 16.0621L30.8234 16.0937L30.9456 16.1265L31.0675 16.1605L31.1892 16.1959L31.3107 16.2324L31.4319 16.2701L31.5527 16.3091L31.6732 16.3493L31.7935 16.3908L31.9134 16.4334L32.0329 16.4773L32.1521 16.5223L32.271 16.5686L32.3894 16.6161L32.5074 16.6648L32.625 16.7148L32.7423 16.7659L32.859 16.8182L32.9753 16.8716L33.0912 16.9264L33.2066 16.9823L33.3215 17.0393L33.4359 17.0976L33.5498 17.1571L33.6632 17.2176L33.776 17.2794L33.8883 17.3422L34 17.4063L34.1112 17.4715L34.2218 17.538L34.3317 17.6054L34.441 17.6741L34.5497 17.7439L34.6579 17.8149L34.7653 17.8868L34.8722 17.96L34.9783 18.0343L35.0837 18.1096L35.1884 18.1861L35.2924 18.2637L35.3958 18.3423L35.4983 18.4221L35.6002 18.5029L35.7012 18.5847L35.8015 18.6677L35.901 18.7517L35.9998 18.8367L36.0978 18.9227L36.195 19.0098L36.2913 19.098L36.3867 19.1871L36.4813 19.2772L36.575 19.3684L36.6679 19.4605L36.76 19.5537L36.8511 19.6479L36.9414 19.7429L37.0306 19.839L37.119 19.936L37.2065 20.034L37.293 20.1328L37.3786 20.2326L37.4632 20.3333L37.5468 20.4349L37.6294 20.5375L37.7111 20.6409L37.7917 20.7453L37.8714 20.8505L37.95 20.9566L38.0275 21.0634L38.1041 21.1712L38.1795 21.2798L38.2539 21.3893L38.3272 21.4995L38.3994 21.6105L38.4706 21.7224L38.5406 21.835L38.6096 21.9484L38.6775 22.0625L38.7441 22.1775L38.8097 22.2931L38.8741 22.4095L38.9374 22.5266L38.9995 22.6445L39.0605 22.763L39.1202 22.8823L39.1788 23.0022L39.2362 23.1228L39.2924 23.2439L39.3473 23.3659L39.4011 23.4883L39.4537 23.6114L39.505 23.7352L39.5551 23.8595L39.6039 23.9844L39.6514 24.1098L39.6978 24.2359L39.7428 24.3625L39.7866 24.4896L39.8292 24.6173L39.8703 24.7455L39.9102 24.8741L39.9489 25.0033L39.9862 25.1329L40.0223 25.263L40.0569 25.3936L40.0904 25.5246L40.1224 25.656L40.1531 25.7878L40.1825 25.92L40.2105 26.0526L40.2373 26.1856L40.2625 26.3189L40.2865 26.4526L40.3092 26.5867L40.3305 26.7209L40.3503 26.8556L40.3689 26.9905L40.386 27.1257L40.4019 27.2612L40.4162 27.397L40.4292 27.5329L40.4409 27.6692L40.451 27.8056L40.4599 27.9422L40.4672 28.0789L40.4733 28.2159L40.4779 28.3531L40.4811 28.4903L40.4828 28.6278L40.4832 28.7653L40.4821 28.9029L40.4796 29.0406L40.4757 29.1784L40.4704 29.3163L40.4637 29.4541L40.4555 29.592L40.446 29.7301L40.435 29.868L40.4224 30.0059L40.4086 30.1438L40.3932 30.2816L40.3766 30.4195L40.3584 30.5572L40.3388 30.6949L40.3177 30.8325L40.2953 30.9699L40.2714 31.1072L40.246 31.2444L40.2193 31.3815L40.191 31.5184L40.1614 31.6551L40.1304 31.7916L40.0979 31.9279L40.064 32.0639L40.0287 32.1998L39.9919 32.3354L39.9537 32.4707L39.9141 32.6057L39.8731 32.7404L39.8307 32.8749L39.7867 33.009L39.7415 33.1427L39.6948 33.2761L39.6468 33.4092L39.5973 33.5418L39.5464 33.674L39.4941 33.8059L39.4405 33.9373L39.3854 34.0684L39.3289 34.1989L39.2711 34.329L39.2119 34.4586L39.1513 34.5877L39.0894 34.7163L39.026 34.8444L38.9612 34.9719L38.8952 35.0989L38.8278 35.2253L38.759 35.3512L38.6889 35.4764L38.6176 35.6011L38.5448 35.7251L38.4707 35.8486L38.3953 35.9712L38.3186 36.0934L38.2405 36.2148L38.1612 36.3356L38.0804 36.4556L37.9985 36.5749L37.9153 36.6936L37.8308 36.8114L37.745 36.9285L37.6581 37.0449L37.5698 37.1605L37.4802 37.2753L37.3894 37.3892L37.2974 37.5024L37.2041 37.6147L37.1097 37.7262L37.014 37.8369L36.917 37.9467L36.819 38.0555L36.7197 38.1635L36.6192 38.2706L36.5177 38.3768L36.4149 38.482L36.311 38.5864L36.2058 38.6897L36.0997 38.7921L35.9923 38.8935L35.8839 38.9939L35.7743 39.0934L35.6636 39.1917L35.5519 39.2891L35.4391 39.3855L35.3253 39.4808L35.2103 39.5751L35.0943 39.6682L34.9772 39.7603L34.8591 39.8513L34.7401 39.9412L34.6201 40.03L34.4989 40.1177L34.377 40.2043L34.2539 40.2896L34.13 40.3739L34.0049 40.457L33.8791 40.5389L33.7523 40.6196L33.6246 40.6991L33.4959 40.7773L33.3665 40.8545L33.236 40.9304L33.1049 41.005L32.9727 41.0784L32.8398 41.1506L32.706 41.2215L32.5714 41.2911L32.4359 41.3594L32.2998 41.4264L32.1628 41.4922L32.025 41.5566L31.8865 41.6198L31.7473 41.6816L31.6074 41.7421L31.4666 41.8012L31.3253 41.859L31.1832 41.9154L31.0405 41.9705L30.8971 42.0243L30.753 42.0766L30.6084 42.1276L30.463 42.1771L30.3172 42.2253L30.1706 42.272L30.0236 42.3174L29.876 42.3613L29.7278 42.4038L29.5791 42.4449L29.4299 42.4845L29.2801 42.5227L29.1299 42.5594L28.9792 42.5947L28.828 42.6286L28.6765 42.6609L28.5244 42.6918L28.3719 42.7212L28.2191 42.7492L28.0658 42.7757L27.9122 42.8006L27.7583 42.824L27.604 42.846L27.4493 42.8664L27.2943 42.8855L27.1392 42.9028L26.9836 42.9188L26.8279 42.9332L26.6719 42.9461L26.5156 42.9574L26.3592 42.9673L26.2024 42.9755L26.0456 42.9823L25.8886 42.9875L25.7314 42.9911L25.5741 42.9933L25.4165 42.9938L25.259 42.9929L25.1015 42.9903L24.9437 42.9863L24.7859 42.9806L24.6281 42.9734L24.4703 42.9647L24.3125 42.9544L24.1546 42.9426L23.9968 42.9291L23.839 42.9141L23.6813 42.8975L23.5236 42.8795L23.3661 42.8598L23.2085 42.8386L23.0512 42.8157L22.8941 42.7914L22.737 42.7655L22.5801 42.738L22.4233 42.709L22.2669 42.6784L22.1106 42.6462L21.9545 42.6125L21.7988 42.5773L21.6432 42.5404L21.4879 42.502L21.333 42.462L21.1783 42.4205L21.024 42.3775L20.8701 42.333L20.7164 42.2869L20.5632 42.2393L20.4104 42.19L20.258 42.1393L20.1059 42.087L19.9544 42.0333L19.8034 41.978L19.6527 41.9211L19.5026 41.8627L19.353 41.8029L19.2038 41.7415L19.0553 41.6786L18.9073 41.6143L18.7599 41.5484L18.613 41.481L18.4669 41.4122L18.3213 41.3419L18.1762 41.2701L18.0318 41.1968L17.8882 41.1221L17.7452 41.0459L17.6029 40.9682L17.4614 40.8891L17.3205 40.8085L17.1803 40.7266L17.041 40.6432L16.9024 40.5584L16.7646 40.4722L16.6276 40.3845L16.4914 40.2955L16.3561 40.205L16.2216 40.1132L16.088 40.02L15.9553 39.9255L15.8234 39.8295L15.6924 39.7323L15.5623 39.6336L15.4332 39.5336L15.3051 39.4323L15.178 39.3296L15.0518 39.2257L14.9265 39.1204L14.8023 39.014L14.6791 38.9061L14.5569 38.797L14.4358 38.6866L14.3158 38.575L14.1968 38.4622L14.0789 38.348L13.9621 38.2327L13.8465 38.1161L13.732 37.9983L13.6186 37.8794L13.5063 37.7592L13.3953 37.638L13.2854 37.5154L13.1767 37.3918L13.0693 37.267L12.9629 37.1411L12.8579 37.0141L12.7541 36.8859L12.6516 36.7567L12.5503 36.6263L12.4503 36.4949L12.3517 36.3624L12.2542 36.229L12.1581 36.0944L12.0634 35.9588L11.9699 35.8222L11.8779 35.6847L11.7872 35.5462L11.6978 35.4066L11.6099 35.2661L11.5233 35.1246L11.4382 34.9822L11.3544 34.8389L11.2721 34.6946L11.1912 34.5496L11.1118 34.4036L11.0338 34.2568L10.9572 34.1091L10.8822 33.9605L10.8086 33.8111L10.7365 33.6609L10.6659 33.51L10.5969 33.3581L10.5293 33.2057L10.4633 33.0524L10.3988 32.8983L10.3359 32.7436L10.2745 32.5882L10.2147 32.4319L10.1564 32.2751L10.0998 32.1177L10.0447 31.9594L9.99119 31.8007L9.93929 31.6413L9.88901 31.4813L9.84034 31.3208L9.79329 31.1596L9.74787 30.9979L9.70409 30.8357L9.66196 30.6728L9.62147 30.5096L9.58262 30.3458L9.54545 30.1815L9.50994 30.0168L9.4761 29.8517L9.44395 29.6861L9.41347 29.5201L9.38468 29.3537L9.35759 29.1869L9.33219 29.0198L9.3085 28.8523L9.28652 28.6845L9.26625 28.5163L9.24769 28.3479L9.23085 28.1793L9.21574 28.0103L9.20236 27.841L9.19071 27.6717L9.18078 27.502L9.1726 27.3322L9.16616 27.1622L9.16147 26.992L9.15851 26.8217L9.15731 26.6512L9.15786 26.4807L9.16016 26.31L9.16422 26.1393L9.17002 25.9686L9.1776 25.7977L9.18693 25.6269L9.19802 25.456L9.21088 25.2852L9.22549 25.1144L9.24187 24.9437L9.26002 24.7729L9.27992 24.6024L9.3016 24.4319L9.32503 24.2614L9.35023 24.0911L9.3772 23.9211L9.40591 23.7511L9.43641 23.5814L9.46866 23.4118L9.50267 23.2425L9.53843 23.0735L9.57597 22.9046L9.61525 22.7361L9.65628 22.5678L9.69906 22.3998L9.74361 22.2323L9.78989 22.0649L9.83792 21.898L9.88769 21.7315L9.9392 21.5654L9.99245 21.3995L10.0474 21.2343L10.1041 21.0695L10.1626 20.9051L10.2227 20.7412L10.2846 20.5777L10.3482 20.4149L10.4135 20.2525L10.4805 20.0907L10.5492 19.9295L10.6196 19.7688L10.6916 19.6087L10.7654 19.4493L10.8409 19.2905L10.918 19.1323L10.9968 18.9749L11.0772 18.8181L11.1593 18.6621L11.2431 18.5067L11.3284 18.3521L11.4155 18.1982L11.5041 18.0451L11.5944 17.8929L11.6863 17.7413L11.7798 17.5907L11.8749 17.4408L11.9716 17.2918L12.0699 17.1437L12.1697 16.9964L12.2712 16.8501L12.3741 16.7047L12.4786 16.5601L12.5847 16.4166L12.6923 16.274L12.8015 16.1324L12.9121 15.9918L13.0242 15.8522L13.1378 15.7137L13.2529 15.5761L13.3696 15.4396L13.4876 15.3042L13.6071 15.1699L13.7281 15.0368L13.8504 14.9046L13.9743 14.7737L14.0996 14.6438L14.2261 14.5152L14.3541 14.3877L14.4835 14.2614L14.6144 14.1363L14.7465 14.0124L14.8799 13.8898L15.0148 13.7683L15.1509 13.6482L15.2882 13.5293L15.427 13.4118L15.567 13.2955L15.7083 13.1805L15.8508 13.0668L15.9946 12.9545L16.1396 12.8435L16.2858 12.734L16.4333 12.6257L16.5819 12.5189L16.7316 12.4135L16.8826 12.3095L17.0347 12.2069L17.1879 12.1058L17.3424 12.0061L17.4978 11.9079L17.6544 11.8111L17.812 11.7159L17.9707 11.6221L18.1304 11.5299L18.2912 11.4391L18.453 11.3499L18.6158 11.2623L18.7796 11.1761L18.9443 11.0916L19.11 11.0086L19.2766 10.9272L19.4442 10.8474L19.6127 10.7692L19.7821 10.6927L19.9524 10.6177L20.1235 10.5444L20.2955 10.4727L20.4683 10.4027L20.6418 10.3343L20.8162 10.2676L20.9913 10.2026L21.1673 10.1392L21.344 10.0776L21.5214 10.0177L21.6995 9.95943L21.8782 9.90293L22.0577 9.84814L22.2378 9.79509L22.4186 9.74378L22.5999 9.69422L22.7819 9.64641L22.9645 9.60037L23.1477 9.5561L23.3313 9.51361L23.5156 9.47289L23.7003 9.43396L23.8855 9.39682L24.0713 9.3615L24.2574 9.32797L24.444 9.29625L24.6311 9.26635L24.8185 9.23827L25.0063 9.21202L25.1945 9.1876L25.2647 9.17918ZM25.3441 15.879L25.29 11.3122L25.1357 11.3338L24.9699 11.3587L24.804 11.3852L24.6391 11.4132L24.474 11.4429L24.3098 11.4742L24.1458 11.507L23.9825 11.5414L23.8195 11.5775L23.6569 11.6151L23.4948 11.6543L23.3333 11.695L23.172 11.7374L23.0171 11.7797L22.852 11.8266L22.6926 11.8735L22.5338 11.922L22.376 11.9718L22.2184 12.0234L22.0615 12.0764L21.9052 12.1309L21.7498 12.1868L21.595 12.2444L21.4409 12.3032L21.2874 12.3637L21.135 12.4255L20.9827 12.489L20.8316 12.5538L20.6811 12.6199L20.5317 12.6875L20.3827 12.7567L20.2345 12.8272L20.0876 12.899L19.9409 12.9724L19.7958 13.0469L19.6509 13.1232L19.5074 13.2003L19.3642 13.2794L19.2224 13.3593L19.0815 13.4407L18.9414 13.5236L18.8023 13.6076L18.6639 13.6931L18.5269 13.7797L18.3905 13.8677L18.2554 13.9569L18.1213 14.0473L17.9881 14.1392L17.8557 14.2323L17.7249 14.3262L17.5948 14.4219L17.4657 14.5185L17.3379 14.6164L17.2112 14.7153L17.0853 14.8156L16.9609 14.9169L16.8375 15.0194L16.715 15.1233L16.5941 15.2279L16.4741 15.3339L16.3552 15.4409L16.2376 15.549L16.1213 15.658L16.0058 15.7684L15.892 15.8795L15.7793 15.9918L15.6676 16.1052L15.5573 16.2195L15.4483 16.335L15.3405 16.4513L15.234 16.5685L15.1287 16.6868L15.0246 16.8062L14.9222 16.9261L14.8208 17.0473L14.7207 17.1693L14.622 17.2921L14.5248 17.4158L14.4286 17.5406L14.3339 17.6659L14.2406 17.7923L14.1486 17.9194L14.058 18.0474L13.9689 18.176L13.881 18.3055L13.7945 18.4359L13.7094 18.567L13.6259 18.6986L13.5438 18.8311L13.4629 18.9645L13.3835 19.0983L13.3056 19.2329L13.229 19.3682L13.1541 19.5039L13.0805 19.6405L13.0082 19.7779L12.9376 19.9154L12.8683 20.0539L12.8006 20.1929L12.7343 20.3322L12.6696 20.4724L12.6062 20.6129L12.5444 20.754L12.484 20.8956L12.4253 21.0377L12.368 21.1802L12.3121 21.3233L12.2577 21.4668L12.205 21.6106L12.1536 21.755L12.1039 21.8996L12.0556 22.0447L12.0089 22.1902L11.9637 22.336L11.9201 22.4821L11.8779 22.6285L11.8373 22.7752L11.7982 22.9223L11.7607 23.0696L11.7247 23.2172L11.6903 23.365L11.6573 23.513L11.626 23.6613L11.5962 23.8097L11.5679 23.9583L11.5412 24.1072L11.516 24.2561L11.4924 24.4053L11.4703 24.5543L11.4497 24.7037L11.4308 24.8531L11.4133 25.0026L11.3974 25.1521L11.3831 25.3017L11.3703 25.4513L11.359 25.6008L11.3493 25.7505L11.3411 25.9002L11.3345 26.0496L11.3294 26.1992L11.3259 26.3485L11.3239 26.4979L11.3234 26.6473L11.3244 26.7964L11.327 26.9455L11.3311 27.0944L11.3367 27.243L11.3439 27.3917L11.3526 27.5402L11.3628 27.6882L11.3745 27.8363L11.3877 27.984L11.4024 28.1315L11.4186 28.2788L11.4364 28.4258L11.4556 28.5726L11.4763 28.7189L11.4985 28.8651L11.5222 29.0107L11.5473 29.1562L11.574 29.3013L11.6021 29.4458L11.6316 29.5903L11.6626 29.7341L11.6951 29.8777L11.729 30.0206L11.7644 30.1632L11.8012 30.3054L11.8395 30.4471L11.879 30.5882L11.9202 30.7289L11.9626 30.8691L12.0066 31.0088L12.0518 31.148L12.0985 31.2865L12.1466 31.4244L12.196 31.5619L12.2468 31.6987L12.2991 31.835L12.3526 31.9706L12.4074 32.1055L12.4637 32.2399L12.5212 32.3736L12.5802 32.5065L12.6404 32.6389L12.7019 32.7704L12.7648 32.9014L12.8289 33.0316L12.8943 33.161L12.961 33.2898L13.029 33.4178L13.0982 33.545L13.1686 33.6714L13.2404 33.7971L13.3133 33.9219L13.3875 34.0458L13.4629 34.1691L13.5395 34.2914L13.6173 34.4129L13.6963 34.5337L13.7763 34.6533L13.8578 34.7723L13.9401 34.8902L14.0238 35.0074L14.1085 35.1235L14.1945 35.2388L14.2814 35.353L14.3696 35.4665L14.4587 35.5789L14.549 35.6903L14.6404 35.8008L14.7328 35.9104L14.8263 36.0188L14.9208 36.1264L15.0163 36.2328L15.1129 36.3383L15.2104 36.4427L15.3089 36.5461L15.4084 36.6484L15.509 36.7497L15.6104 36.8499L15.7129 36.9491L15.8163 37.0472L15.9204 37.1441L16.0257 37.24L16.1317 37.3347L16.2387 37.4283L16.3466 37.5208L16.4553 37.6122L16.5648 37.7025L16.6752 37.7915L16.7864 37.8794L16.8985 37.9662L17.0113 38.0518L17.125 38.1362L17.2393 38.2194L17.3544 38.3014L17.4703 38.3823L17.587 38.4619L17.7045 38.5404L17.8225 38.6176L17.9413 38.6936L18.0608 38.7684L18.1809 38.8419L18.3016 38.9142L18.4231 38.9852L18.5451 39.055L18.6679 39.1235L18.791 39.1908L18.915 39.2568L19.0394 39.3216L19.1644 39.3849L19.29 39.4472L19.4162 39.5081L19.5428 39.5678L19.6698 39.626L19.7976 39.6831L19.9256 39.7388L20.0542 39.7931L20.1832 39.8463L20.3127 39.8981L20.4425 39.9485L20.5729 39.9977L20.7036 40.0456L20.8346 40.0921L20.966 40.1373L21.0979 40.1812L21.2301 40.2237L21.3625 40.2649L21.4954 40.3047L21.6285 40.3433L21.7618 40.3805L21.8954 40.4163L22.0293 40.4509L22.1635 40.484L22.2978 40.5158L22.4324 40.5463L22.5673 40.5755L22.7023 40.6033L22.8373 40.6296L22.9728 40.6547L23.1081 40.6784L23.2438 40.7009L23.3794 40.7218L23.5152 40.7415L23.6511 40.7599L23.787 40.7769L23.9231 40.7925L24.0591 40.8068L24.1952 40.8197L24.3314 40.8312L24.4675 40.8414L24.6037 40.8504L24.7397 40.8578L24.8757 40.8641L25.0119 40.8689L25.1478 40.8725L25.2836 40.8746L25.4194 40.8754L25.555 40.875L25.6906 40.8731L25.826 40.87L25.9612 40.8655L26.0964 40.8597L26.2313 40.8525L26.366 40.8441L26.5005 40.8343L26.6349 40.8232L26.7689 40.8108L26.9028 40.7971L27.0365 40.7821L27.1698 40.7658L27.3028 40.7482L27.4356 40.7294L27.568 40.7092L27.7002 40.6877L27.8318 40.665L27.9634 40.6409L28.0944 40.6156L28.2251 40.5891L28.3556 40.5612L28.4854 40.5321L28.6149 40.5019L28.7439 40.4702L28.8726 40.4375L29.0009 40.4034L29.1286 40.3681L29.2559 40.3316L29.3827 40.2939L29.5089 40.255L29.6347 40.2148L29.7601 40.1734L29.8848 40.1309L30.009 40.0872L30.1326 40.0423L30.2556 39.9962L30.378 39.9489L30.4999 39.9004L30.6213 39.8508L30.7419 39.8001L30.8619 39.7482L30.9814 39.6953L31.1 39.6411L31.2182 39.5858L31.3357 39.5295L31.4522 39.4722L31.5685 39.4134L31.6837 39.3539L31.7985 39.293L31.9122 39.2313L32.0254 39.1684L32.1379 39.1045L32.2495 39.0395L32.3604 38.9734L32.4706 38.9064L32.5798 38.8383L32.6885 38.7692L32.796 38.6992L32.903 38.6281L33.0093 38.5559L33.1144 38.4828L33.2187 38.409L33.3224 38.3338L33.425 38.2581L33.5269 38.1811L33.6279 38.1032L33.7277 38.0247L33.8271 37.9449L33.9254 37.8643L34.0224 37.783L34.1191 37.7004L34.2145 37.6173L34.3089 37.5334L34.4027 37.4482L34.4951 37.3626L34.5869 37.276L34.6776 37.1885L34.7672 37.1004L34.856 37.0112L34.9438 36.9214L35.0305 36.8308L35.1161 36.7394L35.2008 36.6472L35.2846 36.5544L35.3671 36.4609L35.4489 36.3663L35.5294 36.2713L35.6088 36.1756L35.6874 36.0789L35.7647 35.982L35.841 35.884L35.9163 35.7856L35.9905 35.6863L36.0635 35.5866L36.1354 35.4863L36.2064 35.3851L36.2761 35.2836L36.3448 35.1813L36.4125 35.0784L36.4787 34.9752L36.5442 34.8712L36.6084 34.7666L36.6715 34.6617L36.7333 34.5561L36.7943 34.4499L36.8537 34.3436L36.9123 34.2363L36.9696 34.1289L37.0257 34.021L37.0808 33.9123L37.1345 33.8038L37.1873 33.6941L37.2386 33.5848L37.2892 33.4743L37.3381 33.364L37.3862 33.2528L37.433 33.1417L37.4785 33.0302L37.523 32.9181L37.5662 32.8057L37.6081 32.6934L37.6491 32.5803L37.6885 32.467L37.727 32.3536L37.7642 32.2398L37.8002 32.1256L37.8351 32.0113L37.8686 31.8969L37.901 31.7821L37.9321 31.6672L37.9621 31.552L37.9909 31.4366L38.0184 31.3213L38.0447 31.2053L38.0698 31.0895L38.0938 30.9736L38.1164 30.8576L38.1379 30.7415L38.1581 30.6248L38.1771 30.5086L38.195 30.3921L38.2115 30.2755L38.2269 30.1591L38.241 30.0424L38.254 29.9254L38.2657 29.8092L38.2764 29.6921L38.2857 29.5755L38.2937 29.4591L38.3007 29.3423L38.3064 29.2258L38.3109 29.1094L38.3142 28.9926L38.3162 28.8766L38.3172 28.76L38.3168 28.6439L38.3154 28.5277L38.3127 28.412L38.3088 28.296L38.3037 28.1803L38.2974 28.0651L38.29 27.9495L38.2813 27.8343L38.2716 27.7197L38.2607 27.6047L38.2485 27.4904L38.2351 27.3759L38.2207 27.262L38.2051 27.1481L38.1883 27.0345L38.1704 26.9212L38.1513 26.8084L38.1311 26.6957L38.1097 26.5835L38.0872 26.4711L38.0635 26.3595L38.0388 26.2483L38.013 26.1372L37.9859 26.0264L37.9579 25.9165L37.9286 25.8062L37.8983 25.6969L37.8669 25.5877L37.8344 25.4792L37.8008 25.3708L37.7661 25.2629L37.7304 25.1557L37.6936 25.0489L37.6556 24.9422L37.6168 24.8364L37.5767 24.7309L37.5357 24.626L37.4937 24.5214L37.4505 24.4173L37.4064 24.3141L37.3612 24.2111L37.3151 24.1089L37.2679 24.0072L37.2197 23.9058L37.1704 23.805L37.1204 23.7052L37.0692 23.6055L37.0172 23.5068L36.9641 23.4088L36.91 23.3108L36.8551 23.214L36.7991 23.1176L36.7423 23.0219L36.6843 22.9267L36.6259 22.8325L36.5661 22.7385L36.5057 22.6457L36.4442 22.5534L36.3819 22.4618L36.3186 22.3706L36.2545 22.2805L36.1898 22.1911L36.1238 22.1021L36.0573 22.0142L35.9897 21.9269L35.9216 21.8405L35.8524 21.7546L35.7824 21.6696L35.7116 21.5853L35.6401 21.5018L35.5679 21.4193L35.4946 21.3373L35.4209 21.2563L35.3462 21.1759L35.271 21.0968L35.1947 21.0179L35.118 20.9403L35.0402 20.8631L34.962 20.7871L34.8831 20.712L34.8035 20.6375L34.723 20.5639L34.6419 20.4913L34.5603 20.4196L34.4777 20.3484L34.3951 20.2787L34.3113 20.2093L34.227 20.1411L34.1421 20.0739L34.0566 20.0072L33.9705 19.9418L33.8841 19.8774L33.7967 19.8135L33.7087 19.7506L33.6206 19.689L33.5314 19.6279L33.4423 19.5682L33.3523 19.5091L33.2618 19.451L33.1707 19.3938L33.0795 19.3377L32.9873 19.2824L32.895 19.2283L32.8018 19.1749L32.7088 19.1228L32.615 19.0715L32.5207 19.021L32.426 18.9716L32.3311 18.9234L32.2356 18.8759L32.1397 18.8294L32.0436 18.7841L31.9473 18.7397L31.8499 18.6961L31.753 18.6538L31.6554 18.6125L31.5573 18.5719L31.4591 18.5326L31.3607 18.4943L31.2619 18.4569L31.1625 18.4204L31.0634 18.3852L30.9636 18.3508L30.8637 18.3175L30.7638 18.2852L30.6635 18.254L30.5631 18.2238L30.462 18.1945L30.3611 18.1663L30.2601 18.1391L30.1588 18.113L30.0574 18.0879L29.9555 18.0637L29.8539 18.0407L29.7523 18.0187L29.6502 17.9977L29.5478 17.9776L29.4461 17.9588L29.3436 17.9408L29.2414 17.9239L29.1387 17.908L29.0366 17.8932L28.9336 17.8793L28.8314 17.8666L28.7288 17.8548L28.6262 17.844L28.5238 17.8344L28.4211 17.8256L28.3188 17.8179L28.216 17.8113L28.1137 17.8056L28.0116 17.801L27.9088 17.7974L27.8068 17.7948L27.7047 17.7932L27.6027 17.7926L27.5329 17.7929L27.5858 22.2547L27.6173 22.2548L27.6759 22.2557L27.7347 22.2571L27.7935 22.259L27.8524 22.2617L27.9114 22.2649L27.9703 22.2687L28.0294 22.2731L28.0885 22.2782L28.1477 22.2839L28.2069 22.2902L28.2661 22.297L28.3255 22.3046L28.3847 22.3127L28.444 22.3215L28.5033 22.3309L28.5627 22.341L28.6219 22.3516L28.6812 22.363L28.7404 22.3748L28.7996 22.3874L28.8588 22.4005L28.918 22.4144L28.977 22.4288L29.0361 22.4438L29.0951 22.4595L29.1539 22.4758L29.2128 22.4927L29.2715 22.5103L29.3301 22.5285L29.3886 22.5474L29.4471 22.5669L29.5054 22.587L29.5637 22.6077L29.6217 22.6291L29.6796 22.6511L29.7374 22.6737L29.7951 22.6969L29.8525 22.7208L29.9098 22.7453L29.967 22.7705L30.024 22.7962L30.0808 22.8226L30.1374 22.8496L30.1938 22.8772L30.2501 22.9054L30.306 22.9344L30.3617 22.9638L30.4173 22.9939L30.4726 23.0247L30.5277 23.056L30.5825 23.0879L30.637 23.1204L30.6913 23.1536L30.7454 23.1874L30.7991 23.2218L30.8526 23.2567L30.9057 23.2922L30.9587 23.3285L31.0113 23.3653L31.0635 23.4026L31.1155 23.4405L31.1671 23.4791L31.2184 23.5182L31.2694 23.5579L31.3201 23.5982L31.3703 23.6391L31.4202 23.6805L31.4698 23.7225L31.519 23.7651L31.5678 23.8082L31.6162 23.8519L31.6642 23.8963L31.7119 23.941L31.759 23.9864L31.8059 24.0324L31.8522 24.0788L31.8982 24.1259L31.9438 24.1734L31.9889 24.2215L32.0335 24.2702L32.0777 24.3193L32.1216 24.369L32.1648 24.4192L32.2076 24.4699L32.25 24.5211L32.2919 24.5728L32.3332 24.6251L32.3741 24.6778L32.4146 24.7311L32.4545 24.7847L32.4939 24.839L32.5326 24.8936L32.571 24.9488L32.6088 25.0044L32.6461 25.0606L32.6828 25.1171L32.7191 25.1742L32.7547 25.2316L32.7898 25.2895L32.8243 25.3479L32.8582 25.4066L32.8917 25.4658L32.9244 25.5255L32.9567 25.5855L32.9883 25.6461L33.0193 25.7069L33.0498 25.7681L33.0796 25.8298L33.1088 25.892L33.1374 25.9544L33.1654 26.0173L33.1928 26.0805L33.2195 26.1441L33.2456 26.208L33.271 26.2723L33.2958 26.337L33.3201 26.4019L33.3436 26.4673L33.3664 26.533L33.3886 26.599L33.4101 26.6653L33.4309 26.7319L33.4511 26.7988L33.4706 26.866L33.4894 26.9336L33.5076 27.0014L33.5251 27.0694L33.5418 27.1379L33.5578 27.2065L33.5732 27.2753L33.5879 27.3446L33.6018 27.4139L33.6149 27.4834L33.6275 27.5534L33.6393 27.6235L33.6504 27.6937L33.6607 27.7642L33.6702 27.8349L33.6791 27.9058L33.6873 27.977L33.6947 28.0482L33.7013 28.1196L33.7072 28.1912L33.7124 28.2631L33.7168 28.3349L33.7205 28.407L33.7233 28.4792L33.7255 28.5516L33.7269 28.624L33.7276 28.6966L33.7273 28.7691L33.7265 28.8419L33.7248 28.9148L33.7224 28.9878L33.7192 29.0608L33.7151 29.1338L33.7104 29.207L33.7049 29.2801L33.6985 29.3534L33.6914 29.4267L33.6836 29.5L33.6749 29.5732L33.6654 29.6466L33.6552 29.72L33.6442 29.7933L33.6324 29.8666L33.6198 29.9398L33.6064 30.0131L33.5922 30.0864L33.5773 30.1595L33.5615 30.2327L33.545 30.3057L33.5277 30.3788L33.5095 30.4517L33.4906 30.5246L33.471 30.5973L33.4504 30.67L33.4292 30.7424L33.407 30.8149L33.3842 30.8872L33.3606 30.9593L33.3361 31.0314L33.311 31.1032L33.2848 31.1748L33.258 31.2465L33.2305 31.3177L33.2021 31.389L33.1729 31.4599L33.143 31.5307L33.1123 31.6012L33.0807 31.6717L33.0485 31.7418L33.0154 31.8116L32.9815 31.8813L32.947 31.9507L32.9115 32.0198L32.8753 32.0887L32.8384 32.1573L32.8007 32.2256L32.7623 32.2937L32.723 32.3614L32.6829 32.4289L32.6423 32.4959L32.6007 32.5628L32.5585 32.6292L32.5155 32.6952L32.4716 32.7611L32.4272 32.8264L32.3819 32.8916L32.336 32.9562L32.2892 33.0205L32.2418 33.0844L32.1936 33.1479L32.1446 33.211L32.095 33.2737L32.0446 33.336L31.9936 33.3978L31.9418 33.4593L31.8894 33.5203L31.8361 33.5808L31.7822 33.6408L31.7276 33.7005L31.6723 33.7596L31.6164 33.8182L31.5596 33.8765L31.5023 33.9341L31.4443 33.9912L31.3857 34.048L31.3262 34.1041L31.2662 34.1596L31.2056 34.2147L31.1442 34.2693L31.0823 34.3233L31.0197 34.3767L30.9564 34.4296L30.8925 34.4819L30.828 34.5337L30.7628 34.5847L30.6971 34.6353L30.6308 34.6853L30.5638 34.7347L30.4963 34.7834L30.4282 34.8315L30.3595 34.8791L30.2901 34.9259L30.2203 34.9723L30.1498 35.0178L30.0788 35.0628L30.0072 35.1071L29.9351 35.1507L29.8624 35.1936L29.7893 35.2359L29.7155 35.2775L29.6412 35.3184L29.5665 35.3587L29.4912 35.3982L29.4155 35.4371L29.3391 35.4751L29.2624 35.5126L29.1851 35.5492L29.1074 35.5851L29.0292 35.6204L28.9505 35.6548L28.8715 35.6886L28.7919 35.7215L28.7119 35.7537L28.6314 35.7851L28.5506 35.8158L28.4693 35.8457L28.3876 35.8749L28.3056 35.9033L28.2231 35.9308L28.1403 35.9577L28.0571 35.9835L27.9735 36.0087L27.8895 36.0332L27.8052 36.0567L27.7206 36.0795L27.6356 36.1014L27.5503 36.1225L27.4646 36.1427L27.3787 36.1622L27.2924 36.1808L27.2059 36.1986L27.1191 36.2155L27.032 36.2316L26.9446 36.2468L26.8569 36.2613L26.7691 36.2747L26.681 36.2874L26.5927 36.2992L26.504 36.3102L26.4153 36.3202L26.3263 36.3293L26.2371 36.3377L26.1477 36.3451L26.0581 36.3517L25.9683 36.3572L25.8785 36.3621L25.7885 36.366L25.6983 36.3689L25.6079 36.3709L25.5175 36.3721L25.4269 36.3725L25.3363 36.3719L25.2455 36.3703L25.1546 36.3679L25.0638 36.3646L24.9728 36.3603L24.8816 36.3551L24.7905 36.3491L24.6994 36.3421L24.6083 36.3342L24.5171 36.3253L24.4259 36.3156L24.3347 36.3049L24.2436 36.2933L24.1523 36.2808L24.0612 36.2674L23.9701 36.253L23.8791 36.2378L23.7881 36.2216L23.6972 36.2044L23.6063 36.1865L23.5156 36.1674L23.4249 36.1476L23.3344 36.1267L23.244 36.1049L23.1536 36.0823L23.0634 36.0587L22.9735 36.0341L22.8835 36.0087L22.794 35.9824L22.7044 35.9551L22.615 35.9268L22.5259 35.8977L22.4369 35.8677L22.3483 35.8368L22.2598 35.8048L22.1715 35.772L22.0836 35.7383L21.9958 35.7037L21.9083 35.6681L21.8211 35.6317L21.7342 35.5944L21.6476 35.5561L21.5612 35.517L21.4753 35.4769L21.3895 35.4359L21.3042 35.394L21.2192 35.3513L21.1346 35.3077L21.0503 35.2631L20.9664 35.2177L20.8828 35.1714L20.7998 35.1242L20.7169 35.0761L20.6347 35.0272L20.5528 34.9775L20.4713 34.9268L20.3903 34.8752L20.3097 34.8229L20.2295 34.7696L20.1499 34.7155L20.0708 34.6605L19.9921 34.6047L19.9139 34.5481L19.8362 34.4905L19.7591 34.4323L19.6825 34.3732L19.6064 34.3132L19.5308 34.2524L19.4558 34.1908L19.3813 34.1284L19.3075 34.0652L19.2342 34.0012L19.1615 33.9364L19.0894 33.8708L19.0179 33.8044L18.947 33.7373L18.8768 33.6693L18.8071 33.6006L18.7382 33.5311L18.6699 33.461L18.6022 33.3899L18.5352 33.3183L18.4689 33.2457L18.4033 33.1726L18.3383 33.0987L18.2741 33.024L18.2105 32.9487L18.1476 32.8726L18.0856 32.7958L18.0243 32.7184L17.9636 32.6403L17.9037 32.5615L17.8446 32.4819L17.7864 32.4018L17.7288 32.321L17.672 32.2394L17.6159 32.1573L17.5608 32.0746L17.5064 31.9911L17.4529 31.9071L17.4 31.8225L17.3481 31.7373L17.297 31.6514L17.2467 31.565L17.1973 31.4779L17.1488 31.3903L17.101 31.3021L17.0542 31.2134L17.0083 31.124L16.9631 31.0342L16.9189 30.9439L16.8757 30.8529L16.8332 30.7616L16.7917 30.6696L16.7512 30.5772L16.7115 30.4842L16.6727 30.3908L16.6349 30.2969L16.598 30.2026L16.5621 30.1077L16.5273 30.0124L16.4932 29.9167L16.4601 29.8206L16.428 29.724L16.3969 29.627L16.3668 29.5296L16.3376 29.4319L16.3093 29.3337L16.2821 29.2351L16.256 29.1362L16.2307 29.0369L16.2066 28.9373L16.1835 28.8374L16.1612 28.7371L16.1401 28.6365L16.12 28.5356L16.1009 28.4344L16.0828 28.3329L16.0658 28.2312L16.0498 28.1292L16.0348 28.0268L16.0208 27.9244L16.0081 27.8215L15.9963 27.7186L15.9855 27.6153L15.9758 27.5119L15.9672 27.4083L15.9596 27.3045L15.9531 27.2005L15.9477 27.0964L15.9433 26.9921L15.94 26.8877L15.9379 26.7831L15.9368 26.6785L15.9367 26.5737L15.9378 26.4687L15.94 26.3638L15.9432 26.2587L15.9476 26.1535L15.953 26.0483L15.9595 25.9432L15.9671 25.8379L15.9758 25.7326L15.9856 25.6273L15.9965 25.522L16.0086 25.4167L16.0217 25.3114L16.0359 25.2062L16.0512 25.101L16.0676 24.9958L16.0853 24.8908L16.1038 24.7857L16.1235 24.6807L16.1445 24.5759L16.1664 24.4712L16.1895 24.3666L16.2136 24.2621L16.2389 24.1579L16.2652 24.0537L16.2928 23.9497L16.3214 23.8459L16.351 23.7423L16.3818 23.6387L16.4137 23.5356L16.4467 23.4325L16.4807 23.3297L16.5159 23.2272L16.5522 23.1249L16.5895 23.0229L16.6279 22.9211L16.6675 22.8197L16.7082 22.7186L16.7499 22.6176L16.7927 22.5172L16.8365 22.417L16.8816 22.3171L16.9275 22.2176L16.9747 22.1184L17.0228 22.0198L17.0721 21.9213L17.1223 21.8233L17.1737 21.7258L17.2261 21.6287L17.2796 21.532L17.3341 21.4357L17.3896 21.3399L17.4462 21.2446L17.5039 21.1497L17.5625 21.0553L17.6223 20.9614L17.6831 20.868L17.7448 20.7751L17.8075 20.6828L17.8713 20.5909L17.9361 20.4997L18.0019 20.4091L18.0687 20.3189L18.1364 20.2293L18.2052 20.1404L18.2749 20.052L18.3457 19.9643L18.4175 19.8771L18.49 19.7907L18.5636 19.7048L18.6382 19.6196L18.7137 19.5351L18.7902 19.4512L18.8676 19.3681L18.946 19.2856L19.0253 19.2038L19.1054 19.1228L19.1865 19.0424L19.2685 18.9628L19.3513 18.8839L19.4351 18.8058L19.5197 18.7284L19.6052 18.6518L19.6916 18.5759L19.7789 18.501L19.867 18.4267L19.9559 18.3533L20.0456 18.2807L20.1363 18.2089L20.2276 18.138L20.3199 18.0679L20.413 17.9986L20.5068 17.9302L20.6015 17.8627L20.6968 17.7961L20.793 17.7302L20.8901 17.6654L20.9877 17.6014L21.0861 17.5384L21.1854 17.4763L21.2853 17.415L21.3859 17.3548L21.4872 17.2954L21.5893 17.2371L21.692 17.1796L21.7954 17.1231L21.8996 17.0677L22.0043 17.0132L22.1097 16.9597L22.2157 16.9072L22.3224 16.8557L22.4297 16.8052L22.5376 16.7557L22.6461 16.7073L22.7552 16.6599L22.865 16.6134L22.9753 16.568L23.086 16.5238L23.1974 16.4806L23.3094 16.4384L23.4217 16.3973L23.5347 16.3573L23.6483 16.3183L23.7622 16.2805L23.8767 16.2437L23.9916 16.2081L24.1071 16.1735L24.2229 16.1401L24.3392 16.1078L24.456 16.0766L24.5731 16.0465L24.6907 16.0175L24.8086 15.9898L24.927 15.9632L25.0457 15.9377L25.1648 15.9133L25.2842 15.8901L25.3441 15.879ZM26.8118 24.4594L25.4496 24.7849L25.3696 18.0373L25.3054 18.0517L25.2088 18.0745L25.1122 18.0983L25.0164 18.1228L24.9206 18.1484L24.8255 18.1748L24.7304 18.2024L24.6362 18.2305L24.5418 18.2598L24.4485 18.2897L24.355 18.3208L24.2621 18.3527L24.1697 18.3854L24.0777 18.419L23.9864 18.4534L23.8953 18.4888L23.8047 18.525L23.7146 18.562L23.6247 18.6001L23.5359 18.6386L23.4472 18.6783L23.3592 18.7186L23.2714 18.76L23.1844 18.8019L23.0977 18.8448L23.0119 18.8884L22.9264 18.9329L22.8416 18.9781L22.7573 19.0241L22.6735 19.0709L22.5903 19.1185L22.5081 19.1667L22.4257 19.216L22.3444 19.2658L22.2638 19.3164L22.1837 19.3676L22.104 19.4198L22.0252 19.4726L21.947 19.5261L21.8693 19.5803L21.7925 19.6351L21.716 19.6908L21.6404 19.7471L21.5655 19.8041L21.4911 19.8618L21.4176 19.9199L21.3448 19.9789L21.2725 20.0386L21.2009 20.099L21.1302 20.1597L21.0601 20.2213L20.9907 20.2833L20.9221 20.3461L20.8541 20.4095L20.787 20.4735L20.7206 20.5379L20.6548 20.6031L20.5899 20.6687L20.5257 20.735L20.4624 20.8017L20.3995 20.8693L20.3377 20.937L20.2766 21.0054L20.2162 21.0744L20.1567 21.1437L20.0979 21.2138L20.0401 21.284L19.9828 21.3551L19.9265 21.4264L19.8709 21.4984L19.8161 21.5708L19.7622 21.6435L19.7091 21.7166L19.6568 21.7903L19.6053 21.8645L19.5546 21.9389L19.5048 22.014L19.4559 22.0891L19.4078 22.1648L19.3604 22.241L19.3141 22.3173L19.2684 22.3944L19.2237 22.4713L19.1797 22.549L19.1366 22.6269L19.0945 22.705L19.0532 22.7835L19.0127 22.8623L18.973 22.9416L18.9344 23.0208L18.8964 23.1007L18.8595 23.1805L18.8234 23.2608L18.7881 23.3413L18.7537 23.4221L18.7202 23.5029L18.6876 23.5843L18.6559 23.6657L18.625 23.7473L18.5951 23.829L18.566 23.9111L18.5378 23.9934L18.5105 24.0758L18.484 24.1583L18.4585 24.2411L18.4338 24.324L18.4101 24.4068L18.3872 24.49L18.3651 24.5733L18.3441 24.6566L18.3239 24.7401L18.3045 24.8236L18.286 24.9073L18.2685 24.9911L18.2519 25.0748L18.236 25.1586L18.2212 25.2426L18.2072 25.3264L18.1941 25.4103L18.1818 25.4944L18.1705 25.5782L18.1601 25.6624L18.1505 25.7462L18.1417 25.8302L18.1339 25.9143L18.127 25.9981L18.1209 26.082L18.1157 26.1659L18.1114 26.2496L18.1079 26.3333L18.1053 26.4168L18.1037 26.5005L18.1027 26.584L18.1029 26.6673L18.1037 26.7505L18.1055 26.8337L18.1081 26.9166L18.1115 26.9995L18.1157 27.0822L18.1209 27.1647L18.127 27.2471L18.1338 27.3293L18.1415 27.4113L18.15 27.4934L18.1593 27.5748L18.1695 27.6564L18.1805 27.7375L18.1924 27.8187L18.2051 27.8994L18.2186 27.98L18.2329 28.0605L18.248 28.1405L18.2639 28.2204L18.2806 28.2998L18.2982 28.3792L18.3165 28.4582L18.3357 28.537L18.3555 28.6153L18.3763 28.6936L18.3977 28.7713L18.4199 28.8489L18.443 28.926L18.4667 29.0029L18.4913 29.0794L18.5166 29.1553L18.5427 29.2313L18.5696 29.3067L18.5971 29.3817L18.6253 29.4565L18.6544 29.5308L18.6842 29.6047L18.7147 29.6782L18.7458 29.7512L18.7778 29.824L18.8104 29.8963L18.8437 29.9682L18.8778 30.0396L18.9124 30.1105L18.948 30.1813L18.9839 30.2512L19.0207 30.3209L19.0581 30.3901L19.0963 30.4588L19.1351 30.5271L19.1744 30.5949L19.2145 30.662L19.2552 30.7289L19.2965 30.7952L19.3384 30.8609L19.3811 30.9263L19.4242 30.9911L19.4681 31.0555L19.5124 31.1189L19.5574 31.1823L19.6031 31.2449L19.6491 31.307L19.6961 31.3687L19.7433 31.4296L19.7912 31.49L19.8397 31.5499L19.8887 31.6094L19.9381 31.668L19.9883 31.7263L20.0389 31.7839L20.09 31.8409L20.1418 31.8974L20.1938 31.9531L20.2466 32.0085L20.2997 32.0631L20.3533 32.1171L20.4075 32.1705L20.4621 32.2233L20.5172 32.2756L20.5727 32.3271L20.6288 32.378L20.6852 32.4284L20.7421 32.478L20.7994 32.5271L20.8571 32.5755L20.9152 32.6233L20.9738 32.6704L21.0329 32.7169L21.0921 32.7626L21.1519 32.8078L21.2121 32.8523L21.2726 32.8962L21.3335 32.9393L21.3947 32.9818L21.4563 33.0237L21.5182 33.0648L21.5804 33.1052L21.6429 33.145L21.706 33.1843L21.7691 33.2226L21.8326 33.2604L21.8965 33.2975L21.9604 33.3338L22.0247 33.3695L22.0896 33.4046L22.1545 33.4388L22.2196 33.4724L22.285 33.5053L22.3508 33.5375L22.4165 33.569L22.4828 33.5998L22.5491 33.6299L22.6155 33.6593L22.6824 33.688L22.7494 33.716L22.8164 33.7433L22.8838 33.7699L22.9513 33.7956L23.0191 33.8208L23.0867 33.8453L23.1549 33.869L23.2228 33.892L23.291 33.9143L23.3595 33.9359L23.428 33.9568L23.4966 33.9769L23.5652 33.9964L23.6341 34.0151L23.703 34.0332L23.7719 34.0504L23.8409 34.0671L23.91 34.0829L23.9791 34.0981L24.0483 34.1126L24.1176 34.1263L24.1869 34.1394L24.2561 34.1517L24.3255 34.1634L24.3949 34.1743L24.4642 34.1846L24.5334 34.194L24.6027 34.2028L24.672 34.2109L24.7414 34.2184L24.8106 34.225L24.8799 34.231L24.949 34.2363L25.018 34.2409L25.0872 34.2449L25.1561 34.248L25.2248 34.2506L25.2939 34.2524L25.3624 34.2536L25.431 34.2541L25.4995 34.2538L25.5678 34.253L25.6362 34.2513L25.7044 34.2491L25.7723 34.2463L25.8401 34.2426L25.9081 34.2383L25.9754 34.2334L26.0429 34.2278L26.11 34.2216L26.1772 34.2147L26.244 34.207L26.3106 34.1989L26.3772 34.19L26.4434 34.1804L26.5094 34.1703L26.5754 34.1595L26.641 34.1481L26.7064 34.136L26.7716 34.1232L26.8366 34.1099L26.9011 34.0959L26.9654 34.0814L27.0297 34.0662L27.0937 34.0503L27.1572 34.034L27.2206 34.017L27.2836 33.9994L27.3466 33.9811L27.409 33.9623L27.4709 33.9429L27.5331 33.9228L27.5945 33.9022L27.6557 33.8812L27.7166 33.8595L27.7771 33.8371L27.8375 33.8142L27.8974 33.7908L27.9569 33.7668L28.0161 33.7423L28.0749 33.7172L28.1335 33.6915L28.1915 33.6654L28.2494 33.6387L28.3067 33.6115L28.3635 33.5837L28.4202 33.5555L28.4763 33.5268L28.5322 33.4975L28.5876 33.4676L28.6425 33.4373L28.697 33.4066L28.7513 33.3753L28.805 33.3435L28.8582 33.3112L28.9111 33.2785L28.9635 33.2453L29.0155 33.2117L29.0672 33.1775L29.1182 33.143L29.1689 33.1079L29.2192 33.0725L29.2688 33.0367L29.3181 33.0003L29.3669 32.9635L29.4152 32.9263L29.4631 32.8887L29.5106 32.8507L29.5574 32.8124L29.6038 32.7736L29.6497 32.7344L29.6951 32.6948L29.7401 32.6548L29.7845 32.6144L29.8285 32.5738L29.8718 32.5327L29.9148 32.4913L29.9572 32.4494L29.9992 32.4074L30.0405 32.3649L30.0813 32.322L30.1216 32.279L30.1615 32.2354L30.2007 32.1918L30.2395 32.1476L30.2777 32.1032L30.3153 32.0586L30.3526 32.0135L30.389 31.9683L30.4252 31.9227L30.4608 31.877L30.4956 31.8309L30.5301 31.7844L30.5639 31.738L30.5973 31.6909L30.6301 31.6438L30.6623 31.5966L30.6939 31.5489L30.7252 31.5011L30.7555 31.4532L30.7855 31.4049L30.815 31.3565L30.8438 31.3078L30.8722 31.259L30.8998 31.2099L30.927 31.1608L30.9536 31.1113L30.9796 31.0619L31.005 31.0121L31.0299 30.9622L31.0543 30.9122L31.078 30.8619L31.1012 30.8117L31.1238 30.7612L31.1458 30.7107L31.1673 30.6599L31.1881 30.6092L31.2085 30.558L31.2281 30.5073L31.2474 30.4558L31.2658 30.4051L31.2839 30.3536L31.3014 30.3021L31.3182 30.2508L31.3345 30.1992L31.3502 30.1478L31.3655 30.0958L31.3799 30.0445L31.3941 29.9924L31.4074 29.9411L31.4203 29.8891L31.4326 29.8371L31.4443 29.7855L31.4554 29.734L31.466 29.6817L31.4761 29.6301L31.4855 29.578L31.4944 29.5264L31.5028 29.4747L31.5106 29.4228L31.5178 29.3709L31.5244 29.3191L31.5306 29.2676L31.5361 29.2162L31.5411 29.1643L31.5456 29.1129L31.5495 29.0614L31.5528 29.01L31.5556 28.9587L31.5579 28.9075L31.5595 28.8566L31.5607 28.8053L31.5614 28.7541L31.5615 28.7034L31.561 28.6527L31.5601 28.6021L31.5586 28.5517L31.5566 28.501L31.554 28.4512L31.5509 28.4004L31.5473 28.3509L31.5432 28.3011L31.5386 28.251L31.5334 28.2015L31.5278 28.1525L31.5216 28.1027L31.515 28.054L31.5077 28.005L31.5002 27.9566L31.4919 27.9078L31.4833 27.8594L31.4742 27.8114L31.4646 27.7635L31.4545 27.7155L31.4438 27.6681L31.4328 27.6208L31.4212 27.5737L31.4093 27.527L31.3967 27.48L31.3839 27.4339L31.3704 27.3874L31.3566 27.3416L31.3423 27.2959L31.3275 27.2505L31.3123 27.2052L31.2966 27.1601L31.2806 27.1156L31.2641 27.0713L31.247 27.0269L31.2297 26.9832L31.2118 26.9392L31.1937 26.8963L31.1749 26.8529L31.156 26.8103L31.1365 26.768L31.1167 26.7256L31.0965 26.6838L31.0758 26.6422L31.0548 26.6008L31.0334 26.56L31.0115 26.5193L30.9894 26.479L30.9668 26.4389L30.9438 26.3992L30.9206 26.3599L30.897 26.3209L30.8729 26.282L30.8485 26.2438L30.8238 26.2058L30.7988 26.1681L30.7734 26.1306L30.7477 26.0937L30.7216 26.057L30.6952 26.0207L30.6685 25.9848L30.6415 25.9492L30.6143 25.914L30.5865 25.879L30.5586 25.8446L30.5304 25.8104L30.5019 25.7766L30.4731 25.7432L30.4441 25.7102L30.4147 25.6776L30.385 25.6453L30.3551 25.6133L30.325 25.5819L30.2945 25.5508L30.2638 25.52L30.2329 25.4897L30.2017 25.4598L30.1704 25.4303L30.1385 25.4009L30.1068 25.3722L30.0747 25.3437L30.0424 25.3159L30.0098 25.2882L29.9771 25.2611L29.9441 25.2343L29.911 25.208L29.8777 25.182L29.8441 25.1563L29.8104 25.1313L29.7765 25.1064L29.7423 25.0821L29.7082 25.0582L29.6738 25.0346L29.6393 25.0115L29.6045 24.9888L29.5696 24.9665L29.5347 24.9446L29.4994 24.9231L29.4641 24.9021L29.4288 24.8815L29.3932 24.8613L29.3574 24.8415L29.3217 24.8221L29.2859 24.8031L29.2499 24.7845L29.214 24.7664L29.1776 24.7486L29.1414 24.7313L29.105 24.7145L29.0686 24.698L29.0321 24.6819L28.9953 24.6662L28.9589 24.6511L28.922 24.6363L28.8852 24.6219L28.8484 24.6079L28.8115 24.5944L28.7747 24.5812L28.7377 24.5685L28.7007 24.5561L28.6638 24.5442L28.6267 24.5327L28.5896 24.5216L28.5527 24.5109L28.5154 24.5006L28.4785 24.4908L28.4414 24.4814L28.4043 24.4723L28.3672 24.4636L28.3302 24.4554L28.2931 24.4476L28.2561 24.4401L28.2192 24.433L28.1824 24.4264L28.1452 24.4202L28.1086 24.4144L28.0715 24.4089L28.035 24.4038L27.9981 24.3991L27.9615 24.3949L27.9251 24.391L27.8884 24.3875L27.852 24.3843L27.8156 24.3816L27.7793 24.3793L27.7431 24.3773L27.7069 24.3757L27.6711 24.3745L27.635 24.3736L27.5992 24.3731L27.5634 24.373L27.5279 24.3734L27.4923 24.3739L27.4569 24.3749L27.4216 24.3763L27.3866 24.378L27.3514 24.3801L27.3167 24.3825L27.2819 24.3852L27.2473 24.3884L27.2129 24.3918L27.1784 24.3956L27.1444 24.3997L27.1103 24.4042L27.0765 24.409L27.0427 24.4142L27.0093 24.4197L26.9758 24.4255L26.9429 24.4316L26.9096 24.4381L26.8769 24.4449L26.8442 24.4519L26.8118 24.4594Z" fill="#1ABC9C"></path></svg>